<?xml version="1.0" encoding="UTF-8"?>
<svg id="Layer_1" data-name="Layer 1" xmlns="http://www.w3.org/2000/svg" xmlns:xlink="http://www.w3.org/1999/xlink" viewBox="0 0 316.69 258.43">
  <defs>
    <style>
      .cls-1 {
        font-family: OldEnglishTextMT, 'Old English Text MT';
        font-size: 60px;
      }

      .cls-1, .cls-2 {
        fill: #231f20;
      }

      .cls-2, .cls-3, .cls-4, .cls-5 {
        stroke: #231f20;
        stroke-miterlimit: 10;
      }

      .cls-3 {
        fill: url(#radial-gradient-2);
      }

      .cls-3, .cls-4, .cls-5 {
        stroke-width: 3px;
      }

      .cls-4 {
        fill: url(#radial-gradient-3);
      }

      .cls-5 {
        fill: url(#radial-gradient);
      }
    </style>
    <radialGradient id="radial-gradient" cx="235.2" cy="125.22" fx="253.14" fy="67.81" r="104.17" gradientUnits="userSpaceOnUse">
      <stop offset=".53" stop-color="#ed1c24" stop-opacity="0"/>
      <stop offset=".57" stop-color="#ed2723" stop-opacity=".06"/>
      <stop offset=".64" stop-color="#f04421" stop-opacity=".22"/>
      <stop offset=".74" stop-color="#f4741e" stop-opacity=".48"/>
      <stop offset=".8" stop-color="#f7941d" stop-opacity=".65"/>
      <stop offset=".85" stop-color="#f47c21" stop-opacity=".77"/>
      <stop offset=".9" stop-color="#f26925" stop-opacity=".87"/>
      <stop offset=".95" stop-color="#f15d28" stop-opacity=".93"/>
      <stop offset="1" stop-color="#f15a29" stop-opacity=".95"/>
    </radialGradient>
    <radialGradient id="radial-gradient-2" cx="86.01" cy="195.48" fx="86.01" fy="195.48" r="73.88" gradientUnits="userSpaceOnUse">
      <stop offset=".57" stop-color="#ed1c24" stop-opacity="0"/>
      <stop offset=".61" stop-color="#ed2723" stop-opacity=".06"/>
      <stop offset=".67" stop-color="#f04421" stop-opacity=".22"/>
      <stop offset=".75" stop-color="#f4741e" stop-opacity=".48"/>
      <stop offset=".8" stop-color="#f7941d" stop-opacity=".65"/>
      <stop offset=".85" stop-color="#f47c21" stop-opacity=".77"/>
      <stop offset=".9" stop-color="#f26925" stop-opacity=".87"/>
      <stop offset=".95" stop-color="#f15d28" stop-opacity=".93"/>
      <stop offset="1" stop-color="#f15a29" stop-opacity=".95"/>
    </radialGradient>
    <radialGradient id="radial-gradient-3" cx="68.39" cy="81.81" fx="68.39" fy="81.81" r="46.43" gradientUnits="userSpaceOnUse">
      <stop offset=".57" stop-color="#ed1c24" stop-opacity="0"/>
      <stop offset=".61" stop-color="#ed2723" stop-opacity=".06"/>
      <stop offset=".67" stop-color="#f04421" stop-opacity=".22"/>
      <stop offset=".75" stop-color="#f4741e" stop-opacity=".48"/>
      <stop offset=".8" stop-color="#f7941d" stop-opacity=".65"/>
      <stop offset=".85" stop-color="#f47c21" stop-opacity=".77"/>
      <stop offset=".9" stop-color="#f26925" stop-opacity=".87"/>
      <stop offset=".95" stop-color="#f15d28" stop-opacity=".93"/>
      <stop offset="1" stop-color="#f15a29" stop-opacity=".95"/>
    </radialGradient>
  </defs>
  <path class="cls-5" d="M186.5,230.93c-3.37-54.84-36.08-96.89-30.7-138,6.82-52.12,74.91-103.3,119-89,23.55,7.64,44.48,35.64,39.7,57-6.02,26.89-46.98,17.28-82.7,58-25.49,29.06-32.14,82.57-35.3,101-1.63,9.5-4.53,29.15-7,29-2.06-.12-2.75-13.96-3-18Z"/>
  <path class="cls-3" d="M80.65,138.45c-10.88,3.45-27.39,8.69-35.04,23.2-12.28,23.28,8.72,50.62-3.59,60.81-5.44,4.5-10.7.13-23.36,6.32-6.92,3.38-18.19,10.96-17.07,16.26,1.3,6.19,18.93,6.51,51.22,8.13,72.97,3.67,80.86,6.98,93.45-2.09,16.72-12.05,24.57-33.61,24.26-52.4-.42-25.05-15.4-47.93-36.84-58.43-23.08-11.31-45.38-4.23-53.01-1.81Z"/>
  <path class="cls-4" d="M59.99,66.75c-12.33,6.31-19.47,14.62-24,20-7.43,8.82-12.34,14.65-11,21,.3,1.42,1.89,7.5,18,14,14.77,5.96,38.54,15.55,55,3,13.79-10.51,13.92-30.04,14-43,.17-26.02-11.19-49.73-17-49-4.49.57-1.62,15.25-13,25-6.54,5.6-9.85,2.78-22,9Z"/>
  <path class="cls-2" d="M67.5,81.93c-1.95.15-4.43.34-6.46,2.21-3.02,2.78-3.86,8.19-1.44,11.25,1.33,1.68,3.24,2.14,4.9,2.54,1.62.39,7.18,1.73,11-2,2.78-2.72,4.2-7.7,2-11-2.39-3.59-7.73-3.18-10-3Z"/>
  <text class="cls-1" transform="translate(63.5 218.03)"><tspan x="0" y="0">S</tspan></text>
</svg>